<svg xmlns="http://www.w3.org/2000/svg" xmlns:xlink="http://www.w3.org/1999/xlink"><symbol id="cart" viewBox="0 0 512 512"><path d="M509.867 89.6c-2.133-2.133-4.267-4.267-8.533-4.267H96L85.333 29.867c0-4.267-6.4-8.533-10.667-8.533h-64C4.267 21.333 0 25.6 0 32c0 6.4 4.267 10.667 10.667 10.667h55.467l51.2 260.267c6.4 34.133 38.4 59.733 72.533 59.733H435.2c6.4 0 10.667-4.267 10.667-10.667 0-6.4-4.267-10.667-10.667-10.667H192c-17.067 0-34.133-8.533-42.667-23.467L460.8 275.2c4.267 0 8.533-4.267 8.533-8.533L512 96C512 96 512 91.733 509.867 89.6zM450.133 256l-311.467 40.533-38.4-192H486.4L450.133 256zM181.333 384C151.467 384 128 407.467 128 437.333c0 29.867 23.467 53.333 53.333 53.333 29.867 0 53.333-23.467 53.333-53.333C234.667 407.467 211.2 384 181.333 384zM181.333 469.333c-17.067 0-32-14.934-32-32s14.933-32 32-32c17.067 0 32 14.934 32 32S198.4 469.333 181.333 469.333zM394.667 384c-29.867 0-53.333 23.467-53.333 53.333 0 29.867 23.467 53.333 53.333 53.333 29.867 0 53.333-23.467 53.333-53.333C448 407.467 424.533 384 394.667 384zM394.667 469.333c-17.067 0-32-14.934-32-32s14.933-32 32-32c17.067 0 32 14.934 32 32S411.733 469.333 394.667 469.333z"/></symbol><symbol id="certificate" viewBox="0 0 512 512"><path d="m494.5 34.936h-477c-9.649 0-17.5 7.851-17.5 17.5v61.595c0 9.697 15 9.697 15 0v-61.595c0-1.378 1.121-2.5 2.5-2.5h477c1.379 0 2.5 1.122 2.5 2.5v365.739c0 1.378-1.121 2.5-2.5 2.5h-96.112v-15.606h75.434c4.143 0 7.5-3.358 7.5-7.5v-78.539c0-9.697-15-9.697-15 0v71.039h-67.934v-33.277c.244.021.49.042.721.063 6.226.547 13.97 1.228 19.335-4.147 5.359-5.369 4.681-13.121 4.136-19.35-.587-6.685.045-8.515 5.183-12.786 13.229-11 13.475-22.778 0-33.98-5.138-4.274-5.767-6.102-5.183-12.788 1.468-16.777-6.368-24.999-23.471-23.496-6.675.586-8.486-.048-12.742-5.187-10.983-13.26-22.769-13.505-33.956 0-4.256 5.138-6.066 5.775-12.741 5.187-16.789-1.475-24.97 6.405-23.472 23.496.584 6.687-.045 8.514-5.183 12.788-13.229 10.999-13.474 22.779 0 33.98 5.138 4.274 5.767 6.102 5.183 12.788-1.575 17.969 7.007 24.917 24.19 23.433v33.278h-294.709v-309.53h420.643v198.489c0 9.697 15 9.697 15 0v-205.989c0-4.142-3.357-7.5-7.5-7.5h-435.643c-4.143 0-7.5 3.358-7.5 7.5v324.528c0 4.142 3.357 7.5 7.5 7.5h302.209v15.606h-322.888c-1.379 0-2.5-1.122-2.5-2.5v-266.145c0-9.697-15-9.697-15 0v266.145c0 9.649 7.851 17.5 17.5 17.5h322.888v33.95c1.068 6.164 4.623 8.431 10.663 6.8l18.337-8.529 18.337 8.529c4.537 2.11 10.663-1.225 10.663-6.8v-33.95h96.112c9.649 0 17.5-7.851 17.5-17.5v-365.739c0-9.65-7.851-17.5-17.5-17.5zm-156.145 306.975c-7.508.661-7.872.259-7.216-7.245 1.008-11.517-1.641-18.237-10.536-25.631-6.086-5.061-6.085-5.85 0-10.911 8.895-7.394 11.545-14.114 10.536-25.63-.656-7.505-.292-7.903 7.216-7.246 11.518 1.015 18.229-1.654 25.606-10.561 5.041-6.084 5.812-6.084 10.853 0 7.379 8.907 14.088 11.572 25.606 10.561 7.509-.661 7.872-.259 7.216 7.245-1.008 11.517 1.641 18.236 10.536 25.63 6.085 5.061 6.088 5.852-.001 10.912-8.895 7.395-11.545 14.112-10.536 25.629.659 7.504.293 7.907-7.214 7.247-4.711-.414-10.055-.884-14.759 1.07-4.553 1.891-7.754 5.754-10.849 9.491-1.458 1.76-4.119 4.973-5.427 5.548-1.307-.575-3.968-3.788-5.426-5.548-3.095-3.736-6.295-7.6-10.849-9.491-4.854-1.48-9.773-1.837-14.756-1.07zm34.196 110.914c-2.006-.933-4.32-.933-6.326 0l-10.837 5.041v-92.349c3.559 3.913 7.95 7.546 14 7.546s10.441-3.632 14-7.545v92.348z"/><path d="M97.263 143.321h258.547c9.697 0 9.697-15 0-15h-258.547c-9.698 0-9.698 15 0 15zM422.237 181.439c0-4.142-3.357-7.5-7.5-7.5h-317.474c-9.697 0-9.697 15 0 15h317.475c4.142 0 7.499-3.358 7.499-7.5zM285.137 227.056c0-4.142-3.357-7.5-7.5-7.5h-180.374c-9.697 0-9.697 15 0 15h180.374c4.142 0 7.5-3.358 7.5-7.5zM186.651 331.598c-4.089.007-8.179.012-12.268.015-7.867.006-12.198-2.091-13.805-10.433-1.467-7.615-12.451-6.645-14.464 0-.891 2.943-5.391 11.368-9.322 10.679-2.083-.365-2.993-3.578-3.763-5.242-1.499-3.239-2.591-6.672-3.526-10.112-3.948-14.534-4.736-29.709-7.206-44.517-1.432-8.587-14.521-6.159-14.732 1.994-.672 25.971-4.918 51.586-14.164 75.929-3.431 9.033 11.064 12.939 14.464 3.988 3.565-9.386 6.395-18.997 8.591-28.751 1.178 3.554 2.583 7.04 4.298 10.431 4.38 8.656 13.313 13.777 22.871 9.927 3.411-1.374 6.523-3.776 9.172-6.699 7.096 8.183 17.653 7.812 27.502 7.8 14.847-.019 29.694-.054 44.542-.095 9.651-.027 9.669-15.027 0-15-12.73.036-25.46.065-38.19.086zM369.388 332.874c16.153 0 29.295-13.141 29.295-29.294s-13.142-29.294-29.295-29.294c-16.152 0-29.294 13.142-29.294 29.294s13.141 29.294 29.294 29.294zm0-43.588c7.882 0 14.295 6.413 14.295 14.294s-6.413 14.294-14.295 14.294-14.294-6.412-14.294-14.294 6.412-14.294 14.294-14.294z"/></symbol><symbol id="credit-card" viewBox="0 -55 512.001 512"><path d="m196 180c-5.519531 0-10 4.480469-10 10s4.480469 10 10 10 10-4.480469 10-10-4.480469-10-10-10zm0 0"/><path d="m444.929688 262.929688-32.929688 32.929687-12.929688-12.929687c-3.90625-3.90625-10.234374-3.90625-14.140624 0-3.90625 3.902343-3.90625 10.234374 0 14.140624l20 20c1.953124 1.953126 4.511718 2.929688 7.070312 2.929688s5.117188-.976562 7.070312-2.929688l40-40c3.90625-3.902343 3.90625-10.234374 0-14.140624s-10.234374-3.90625-14.140624 0zm0 0"/><path d="m502 209c-10.855469 0-19.636719-8.488281-19.984375-19.324219-.175781-5.390625-4.597656-9.675781-9.996094-9.675781h-20.019531c0-33.328125 0-117.089844 0-150 0-16.542969-13.457031-30-30-30h-392c-16.542969 0-30 13.457031-30 30v260c0 16.542969 13.457031 30 30 30h306.457031c16.09375 57.050781 74.09375 81.136719 85.5 81.136719 2.867188 0 3.398438-.804688 7.019531-1.886719 12.871094-3.847656 47.058594-14.070312 69.972657-58.5625 8.539062-16.582031 13.050781-35.238281 13.050781-53.945312v-67.742188c0-5.523438-4.476562-10-10-10zm-482-129h412v40h-412zm10-60h392c5.515625 0 10 4.488281 10 10v30h-412v-30c0-5.511719 4.484375-10 10-10zm-10 270v-150h412v40h-60c-5.523438 0-10 4.476562-10 10 0 11.027344-8.972656 20-20 20-5.523438 0-10 4.476562-10 10v66.742188c0 4.484374.226562 8.914062.671875 13.257812h-302.671875c-5.515625 0-10-4.488281-10-10zm472-3.257812c0 15.539062-3.746094 31.027343-10.828125 44.789062-19.023437 36.925781-47.285156 45.375-57.925781 48.554688-.675782.203124-1.296875.390624-1.867188.566406-5.136718-1.683594-17.652344-6.6875-30.441406-16.21875-26.246094-19.554688-38.9375-46.25-38.9375-77.691406v-58.007813c14.035156-3.625 25.109375-14.699219 28.734375-28.734375h82.777344c3.847656 13.6875 14.714843 24.261719 28.488281 27.757812zm0 0"/><path d="m110 240h-46c-5.523438 0-10 4.476562-10 10s4.476562 10 10 10h46c5.523438 0 10-4.476562 10-10s-4.476562-10-10-10zm0 0"/><path d="m196 240h-46c-5.523438 0-10 4.476562-10 10s4.476562 10 10 10h46c5.523438 0 10-4.476562 10-10s-4.476562-10-10-10zm0 0"/><path d="m282 240h-46c-5.523438 0-10 4.476562-10 10s4.476562 10 10 10h46c5.523438 0 10-4.476562 10-10s-4.476562-10-10-10zm0 0"/><path d="m64 200h92c5.523438 0 10-4.476562 10-10s-4.476562-10-10-10h-92c-5.523438 0-10 4.476562-10 10s4.476562 10 10 10zm0 0"/></symbol><symbol id="date" viewBox="0 0 477.867 477.867"><path d="M426.667,51.2h-51.2V17.067C375.467,7.641,367.826,0,358.4,0s-17.067,7.641-17.067,17.067V51.2h-204.8V17.067 C136.533,7.641,128.892,0,119.467,0S102.4,7.641,102.4,17.067V51.2H51.2C22.923,51.2,0,74.123,0,102.4v324.267 c0,28.277,22.923,51.2,51.2,51.2h375.467c28.277,0,51.2-22.923,51.2-51.2V102.4C477.867,74.123,454.944,51.2,426.667,51.2z M443.733,426.667c0,9.426-7.641,17.067-17.067,17.067H51.2c-9.426,0-17.067-7.641-17.067-17.067V204.8h409.6V426.667z M443.733,170.667h-409.6V102.4c0-9.426,7.641-17.067,17.067-17.067h51.2v34.133c0,9.426,7.641,17.067,17.067,17.067 s17.067-7.641,17.067-17.067V85.333h204.8v34.133c0,9.426,7.641,17.067,17.067,17.067s17.067-7.641,17.067-17.067V85.333h51.2 c9.426,0,17.067,7.641,17.067,17.067V170.667z"/><path d="M352.98,243.934c-6.614-6.388-17.099-6.388-23.712,0L204.8,368.401l-56.201-56.201c-6.78-6.548-17.584-6.36-24.132,0.419 c-6.388,6.614-6.388,17.099,0,23.713l68.267,68.267c6.665,6.662,17.468,6.662,24.132,0l136.533-136.533 C359.947,261.286,359.759,250.482,352.98,243.934z"/></symbol><symbol id="delivery" viewBox="0 -44 512 511"><path d="m212 40.601562h-212v-40h212zm-40 40h-172v40h172zm-40 80h-132v40h132zm380 223h-83.441406c-8.253906 23.277344-30.484375 40-56.558594 40s-48.304688-16.722656-56.558594-40h-123.882812c-8.253906 23.277344-30.484375 40-56.558594 40s-48.304688-16.722656-56.558594-40h-18.441406c-33.085938 0-60-26.917968-60-60v-83h40v83c0 11.027344 8.972656 20 20 20h18.441406c8.253906-23.28125 30.484375-40 56.558594-40s48.304688 16.71875 56.558594 40h120.441406v-283.101562c0-11.027344-8.972656-20-20-20h-40v-40h40c33.085938 0 60 26.914062 60 60v40.101562h40.074219c18.714843 0 36.621093 8.917969 47.894531 23.855469l55.886719 74.050781c10.410156 13.792969 16.144531 30.910157 16.144531 48.191407zm-160-243v75h106.640625l-50.601563-67.050781c-3.757812-4.980469-9.726562-7.949219-15.964843-7.949219zm-197 223c0-11.03125-8.972656-20-20-20s-20 8.96875-20 20c0 11.027344 8.972656 20 20 20s20-8.972656 20-20zm237 0c0-11.03125-8.972656-20-20-20s-20 8.96875-20 20c0 11.027344 8.972656 20 20 20s20-8.972656 20-20zm80-20v-88h-120v51.4375c6.261719-2.21875 12.988281-3.4375 20-3.4375 26.074219 0 48.304688 16.71875 56.558594 40zm0 0"/></symbol><symbol id="factory" viewBox="0 0 512 512"><path d="m392.951 380.638c4.143 0 7.5-3.357 7.5-7.5v-36.338c0-4.143-3.357-7.5-7.5-7.5h-257.22c-4.143 0-7.5 3.357-7.5 7.5v36.338c0 4.143 3.357 7.5 7.5 7.5zm-93.492-15h-27.617v-21.338h27.617zm15-21.338h27.618v21.338h-27.618zm-57.617 21.338h-27.618v-21.338h27.618zm-42.618 0h-27.617v-21.338h27.617zm171.227 0h-28.374v-21.338h28.374zm-242.22-21.338h28.375v21.338h-28.375z"/><path d="m504.5 463.64h-21.612v-285.018h3.152c4.143 0 7.5-3.357 7.5-7.5s-3.357-7.5-7.5-7.5h-3.152v-26.544h3.152c4.143 0 7.5-3.357 7.5-7.5s-3.357-7.5-7.5-7.5c-12.322 0-81.25 0-95.244 0-4.143 0-7.5 3.357-7.5 7.5s3.357 7.5 7.5 7.5h3.152v26.544h-3.152c-4.143 0-7.5 3.357-7.5 7.5s3.357 7.5 7.5 7.5h3.152v32.654l-51.621-51.621c-4.721-4.723-10.999-7.323-17.678-7.323h-32.967v-59.909h4.355c4.143 0 7.5-3.357 7.5-7.5s-3.357-7.5-7.5-7.5h-4.355v-29.063h4.355c4.143 0 7.5-3.357 7.5-7.5s-3.357-7.5-7.5-7.5c-18.956 0-120.634 0-141.743 0-4.143 0-7.5 3.357-7.5 7.5s3.357 7.5 7.5 7.5h4.356v29.062h-4.356c-4.143 0-7.5 3.357-7.5 7.5s3.357 7.5 7.5 7.5h4.356v33.651c0 4.143 3.357 7.5 7.5 7.5s7.5-3.357 7.5-7.5v-33.65h103.031v203.183h-103.03v-139.545c0-4.143-3.357-7.5-7.5-7.5s-7.5 3.357-7.5 7.5v139.545h-28.75v-33.909h3.613c4.143 0 7.5-3.357 7.5-7.5s-3.357-7.5-7.5-7.5h-3.613v-2.552c0-4.143-3.357-7.5-7.5-7.5s-7.5 3.357-7.5 7.5v2.552h-3.612c-4.143 0-7.5 3.357-7.5 7.5s3.357 7.5 7.5 7.5h3.612v33.909h-16.216c-7.452 0-13.516 6.063-13.516 13.516v49.111h-14.819c-15.364 0-29.859 6.778-39.768 18.598-2.661 3.174-2.245 7.904.929 10.565 3.174 2.662 7.904 2.245 10.565-.929 7.052-8.41 17.356-13.234 28.273-13.234h14.819v20h-14.818c-9.312 0-16.889 7.576-16.889 16.889v53.519h-20v-53.352c0-4.143-3.357-7.5-7.5-7.5s-7.5 3.357-7.5 7.5v53.352h-10.961c-4.143 0-7.5 3.357-7.5 7.5s3.357 7.5 7.5 7.5h497c4.143 0 7.5-3.357 7.5-7.5s-3.357-7.501-7.5-7.501zm-330.849-386.217v-29.063h103.031v29.062h-103.031zm235.297 59.655h58.939v26.544h-58.939zm-84.299 30.254c2.671 0 5.182 1.04 7.07 2.93l62.229 62.229v28.283l-71.244-71.245c-1.407-1.406-3.314-2.196-5.304-2.196h-25.718v-20h32.967zm-256.188 242.789c0-1.041.848-1.889 1.889-1.889h14.819v55.407h-16.708zm31.708-99.516h227.501c4.143 0 7.5-3.357 7.5-7.5s-3.357-7.5-7.5-7.5h-35.987v-93.273h22.611l79.654 79.655v13.618h-36.291c-4.143 0-7.5 3.357-7.5 7.5s3.357 7.5 7.5 7.5h70.857v153.035h-101.366v-52.062c0-4.143-3.357-7.5-7.5-7.5h-110.614c-4.143 0-7.5 3.357-7.5 7.5v52.062h-101.365c0-6.594 0-146.346 0-153.035zm116.365 153.035v-44.562h95.614v44.562zm226.981 0v-154.519c0-7.452-6.063-13.516-13.516-13.516h-21.051c0-23.325 0-92.714 0-116.983h58.939v285.018z"/></symbol><symbol id="fb" viewBox="0 0 320 512"><path d="M279.14 288l14.22-92.66h-88.91v-60.13c0-25.35 12.42-50.06 52.24-50.06h40.42V6.26S260.43 0 225.36 0c-73.22 0-121.08 44.38-121.08 124.72v70.62H22.89V288h81.39v224h100.17V288z"/></symbol><symbol id="instagram" viewBox="0 0 448 512"><path d="M224.1 141c-63.6 0-114.9 51.3-114.9 114.9s51.3 114.9 114.9 114.9S339 319.5 339 255.9 287.7 141 224.1 141zm0 189.6c-41.1 0-74.7-33.5-74.7-74.7s33.5-74.7 74.7-74.7 74.7 33.5 74.7 74.7-33.6 74.7-74.7 74.7zm146.4-194.3c0 14.9-12 26.8-26.8 26.8-14.9 0-26.8-12-26.8-26.8s12-26.8 26.8-26.8 26.8 12 26.8 26.8zm76.1 27.2c-1.7-35.9-9.9-67.7-36.2-93.9-26.2-26.2-58-34.4-93.9-36.2-37-2.1-147.9-2.1-184.9 0-35.8 1.7-67.6 9.9-93.9 36.1s-34.4 58-36.2 93.9c-2.1 37-2.1 147.9 0 184.9 1.7 35.9 9.9 67.7 36.2 93.9s58 34.4 93.9 36.2c37 2.1 147.9 2.1 184.9 0 35.9-1.7 67.7-9.9 93.9-36.2 26.2-26.2 34.4-58 36.2-93.9 2.1-37 2.1-147.8 0-184.8zM398.8 388c-7.8 19.6-22.9 34.7-42.6 42.6-29.5 11.7-99.5 9-132.1 9s-102.7 2.6-132.1-9c-19.6-7.8-34.7-22.9-42.6-42.6-11.7-29.5-9-99.5-9-132.1s-2.6-102.7 9-132.1c7.8-19.6 22.9-34.7 42.6-42.6 29.5-11.7 99.5-9 132.1-9s102.7-2.6 132.1 9c19.6 7.8 34.7 22.9 42.6 42.6 11.7 29.5 9 99.5 9 132.1s2.7 102.7-9 132.1z"/></symbol><symbol id="load-more" viewBox="0 0 492.883 492.883"><path d="M122.941 374.241c-20.1-18.1-34.6-39.8-44.1-63.1-25.2-61.8-13.4-135.3 35.8-186l45.4 45.4c2.5 2.5 7 .7 7.6-3l24.8-162.3c.4-2.7-1.9-5-4.6-4.6l-162.4 24.8c-3.7.6-5.5 5.1-3 7.6l45.5 45.5c-75.1 76.8-87.9 192-38.6 282 14.8 27.1 35.3 51.9 61.4 72.7 44.4 35.3 99 52.2 153.2 51.1l10.2-66.7C207.441 421.641 159.441 407.241 122.941 374.241zM424.941 414.341c75.1-76.8 87.9-192 38.6-282-14.8-27.1-35.3-51.9-61.4-72.7-44.4-35.3-99-52.2-153.2-51.1l-10.2 66.7c46.6-4 94.7 10.4 131.2 43.4 20.1 18.1 34.6 39.8 44.1 63.1 25.2 61.8 13.4 135.3-35.8 186l-45.4-45.4c-2.5-2.5-7-.7-7.6 3l-24.8 162.3c-.4 2.7 1.9 5 4.6 4.6l162.4-24.8c3.7-.6 5.4-5.1 3-7.6L424.941 414.341z"/></symbol><symbol id="map-mark" viewBox="0 0 512 512"><path d="M256,0C153.755,0,70.573,83.182,70.573,185.426c0,126.888,165.939,313.167,173.004,321.035 c6.636,7.391,18.222,7.378,24.846,0c7.065-7.868,173.004-194.147,173.004-321.035C441.425,83.182,358.244,0,256,0z M256,278.719 c-51.442,0-93.292-41.851-93.292-93.293S204.559,92.134,256,92.134s93.291,41.851,93.291,93.293S307.441,278.719,256,278.719z"/></symbol><symbol id="search" viewBox="0 0 512 512"><path d="M508.875,493.792L353.089,338.005c32.358-35.927,52.245-83.296,52.245-135.339C405.333,90.917,314.417,0,202.667,0 S0,90.917,0,202.667s90.917,202.667,202.667,202.667c52.043,0,99.411-19.887,135.339-52.245l155.786,155.786 c2.083,2.083,4.813,3.125,7.542,3.125c2.729,0,5.458-1.042,7.542-3.125C513.042,504.708,513.042,497.958,508.875,493.792z M202.667,384c-99.979,0-181.333-81.344-181.333-181.333S102.688,21.333,202.667,21.333S384,102.677,384,202.667 S302.646,384,202.667,384z"/></symbol><symbol id="shield" viewBox="0 0 512 512"><path d="M234.53 285.912L169.76 224.259 142.172 253.242 236.775 343.294 380.923 182.799 351.154 156.061z"/><path d="M420.499,65.192c-48.502-8.692-93.168-35.18-115.476-50.195C290.447,5.186,273.496,0,256.001,0 s-34.447,5.186-49.022,14.996C184.671,30.011,140.005,56.5,91.503,65.192c-28.726,5.148-49.576,30.002-49.576,59.097v120.71 c0,39.877,11.157,78.749,33.159,115.539c17.214,28.781,41.064,56.288,70.888,81.757c50.147,42.825,99.804,65.156,101.892,66.086 L256,512l8.134-3.619c2.089-0.929,51.745-23.261,101.892-66.086c29.823-25.469,53.675-52.976,70.888-81.757 c22.004-36.789,33.159-75.662,33.159-115.539V124.29C470.075,95.194,449.225,70.34,420.499,65.192z M430.061,245 c0,59.45-30.033,115.375-89.267,166.224c-34.432,29.558-69.39,48.824-84.791,56.643C220.601,449.879,81.941,371.328,81.941,245 V124.29c0-9.695,6.99-17.985,16.621-19.711c55.718-9.985,105.843-39.616,130.761-56.388c7.947-5.35,17.172-8.178,26.678-8.178 c9.506,0,18.732,2.828,26.678,8.177c24.919,16.773,75.043,46.402,130.761,56.387c9.63,1.726,16.621,10.016,16.621,19.711V245z"/></symbol><symbol id="sizes" viewBox="0 0 74 74"><path d="m38.44 10.87h-2.97a1 1 0 0 1 0-2h2.97a1 1 0 0 1 0 2z"/><path d="m55.41 52.92h-48.59a4.825 4.825 0 0 1 -4.82-4.82v-34.41a4.825 4.825 0 0 1 4.82-4.82h11.74a1 1 0 0 1 0 2h-11.74a2.824 2.824 0 0 0 -2.82 2.82v34.41a2.824 2.824 0 0 0 2.82 2.82h48.59a2.823 2.823 0 0 0 2.82-2.82v-34.41a2.823 2.823 0 0 0 -2.82-2.82h-9.97a1 1 0 0 1 0-2h9.97a4.825 4.825 0 0 1 4.82 4.82v34.41a4.825 4.825 0 0 1 -4.82 4.82z"/><path d="M28.47 10.87h-2.91a1 1 0 010-2h2.91a1 1 0 010 2zM52.03 47.664h-41.83a2.916 2.916 0 01-2.912-2.912v-27.717a2.915 2.915 0 012.912-2.911h41.83a2.914 2.914 0 012.911 2.911v27.717a2.914 2.914 0 01-2.911 2.912zm-41.83-31.54a.913.913 0 00-.912.911v27.717a.913.913 0 00.912.912h41.83a.913.913 0 00.911-.912v-27.717a.912.912 0 00-.911-.911z"/><path d="m21.332 47.664a1 1 0 0 1 -.763-1.646l16.3-19.275a1 1 0 0 1 1.416-.112l16.309 14.018a1 1 0 0 1 -1.3 1.517l-15.545-13.361-15.649 18.505a1 1 0 0 1 -.768.354z"/><path d="M8.289 40.2a1 1 0 01-.717-1.7l9.783-10.058a1 1 0 01.713-.3 1.2 1.2 0 01.715.3l9.741 9.858a1 1 0 11-1.424 1.4l-9.022-9.13-9.072 9.33a1 1 0 01-.717.3zM25.386 27.952a4.562 4.562 0 01-.7-.054 4.406 4.406 0 011.38-8.7 4.405 4.405 0 012.434 7.463 4.367 4.367 0 01-3.114 1.291zm0-6.81a2.407 2.407 0 00-2.378 2.791 2.406 2.406 0 102.762-2.762 2.5 2.5 0 00-.386-.029zM67.41 47.491a1 1 0 01-1-1v-31.191a1 1 0 112 0v31.191a1 1 0 01-1 1z"/><path d="M63.819 19.887a1 1 0 01-.707-1.707l3.588-3.59a1 1 0 011.414 0l3.59 3.59a1 1 0 01-1.414 1.414l-2.88-2.883-2.884 2.883a1 1 0 01-.707.293zM67.41 47.491a1 1 0 01-.71-.291l-3.591-3.59a1 1 0 011.414-1.414l2.884 2.883 2.883-2.883a1 1 0 111.414 1.414l-3.59 3.59a1 1 0 01-.704.291zM46.713 61.543h-31.194a1 1 0 110-2h31.194a1 1 0 010 2z"/><path d="M43.122 65.133a1 1 0 01-.707-1.707l2.885-2.883-2.885-2.883a1 1 0 011.414-1.414l3.591 3.59a1 1 0 010 1.414l-3.591 3.59a1 1 0 01-.707.293zM19.108 65.133a1 1 0 01-.707-.293l-3.589-3.59a1 1 0 010-1.414l3.589-3.59a1 1 0 011.414 1.414l-2.882 2.883 2.882 2.883a1 1 0 01-.707 1.707z"/></symbol><symbol id="technology" viewBox="0 0 482.13 482.13"><path d="M475.266,126.603c-0.001,0-0.001,0-0.002,0l-0.016-0.016l-31.12-4.44c-4.374-0.623-7.415-4.674-6.792-9.048 c0.299-2.102,1.422-3.998,3.12-5.272l25.152-18.864c3.535-2.651,4.251-7.665,1.6-11.2l-28.8-38.4 c-2.651-3.535-7.665-4.251-11.2-1.6l-25.144,18.864c-3.52,2.671-8.538,1.983-11.209-1.537c-1.297-1.709-1.853-3.868-1.543-5.991 l4.448-31.12c0.627-4.374-2.41-8.427-6.783-9.055c-0.003,0-0.006-0.001-0.009-0.001L339.48,2.139 c-4.373-0.628-8.428,2.408-9.056,6.782c0,0.001,0,0.001,0,0.002l-4.448,31.12c-0.623,4.374-4.674,7.415-9.048,6.792 c-2.102-0.299-3.998-1.422-5.272-3.12L292.8,18.563c-2.651-3.535-7.665-4.251-11.2-1.6l-24.04,18.04 c-10.876-1.156-21.844-1.156-32.72,0C153.614,43.144,97.759,99.946,90.816,171.299c-0.216,2.264-0.296,4.512-0.408,6.76h-2.4 c-3.796,0.007-7.065,2.681-7.824,6.4l-5.528,26.288l-22.144-15.272c-3.178-2.193-7.47-1.802-10.2,0.928l-24,24 c-2.726,2.729-3.116,7.015-0.928,10.192l15.2,22.104l-26.296,5.528c-3.678,0.806-6.296,4.067-6.288,7.832v32 c-0.002,3.784,2.649,7.052,6.352,7.832l26.296,5.528l-15.2,22.104c-2.188,3.177-1.798,7.463,0.928,10.192l24,24 c2.73,2.73,7.022,3.121,10.2,0.928l22.104-15.24l5.528,26.296c0.759,3.719,4.028,6.393,7.824,6.4h32 c3.784,0.002,7.052-2.649,7.832-6.352l5.528-26.296l22.104,15.2c3.177,2.188,7.463,1.798,10.192-0.928l12.424-12.464v22.8 c0.036,11.381,6.133,21.88,16,27.552v44.448c0,17.673,14.327,32,32,32h32c17.673,0,32-14.327,32-32v-44.448 c9.867-5.672,15.964-16.171,16-27.552v-31.664c0.217-13.323,7.187-25.623,18.504-32.656c6.639-4.307,12.935-9.122,18.832-14.4 l-10.672-11.92c-5.275,4.728-10.911,9.037-16.856,12.888c-15.885,9.97-25.609,27.334-25.808,46.088v31.664c0,8.837-7.163,16-16,16 h-64c-8.837,0-16-7.163-16-16v-32.328c-0.185-18.399-9.756-35.428-25.376-45.152c-63.407-39.842-82.511-123.541-42.669-186.948 c24.72-39.341,67.862-63.286,114.325-63.452c-0.119,0.285-0.224,0.576-0.312,0.872c-0.297,2.1,0.253,4.233,1.528,5.928 l18.856,25.144c1.988,2.573,2.179,6.107,0.48,8.88c-1.636,2.79-4.799,4.312-8,3.848l-31.12-4.448 c-4.374-0.627-8.427,2.41-9.055,6.783c0,0.003-0.001,0.006-0.001,0.009l-6.792,47.512c-0.627,4.373,2.41,8.427,6.783,9.055 c0.003,0,0.006,0.001,0.009,0.001l31.12,4.448c4.374,0.623,7.415,4.674,6.792,9.048c-0.299,2.102-1.422,3.998-3.12,5.272 l-25.144,18.856c-3.535,2.651-4.251,7.665-1.6,11.2l28.8,38.4c2.651,3.535,7.665,4.251,11.2,1.6l25.152-18.856 c3.538-2.646,8.552-1.923,11.198,1.616c1.266,1.693,1.811,3.819,1.514,5.912l-4.44,31.12c-0.628,4.373,2.408,8.428,6.782,9.056 c0.001,0,0.001,0,0.002,0l47.52,6.792c0.374,0.048,0.751,0.072,1.128,0.072c3.983,0.005,7.362-2.921,7.928-6.864l4.44-31.12 c0.623-4.374,4.674-7.415,9.048-6.792c2.102,0.299,3.998,1.422,5.272,3.12l18.864,25.144c2.651,3.535,7.665,4.251,11.2,1.6 l38.4-28.8c3.535-2.651,4.251-7.665,1.6-11.2l-18.856-25.144c-1.979-2.577-2.17-6.105-0.48-8.88c1.601-2.827,4.793-4.359,8-3.84 l31.12,4.44c4.373,0.628,8.428-2.409,9.056-6.782c0-0.001,0-0.001,0-0.002l6.784-47.52 C482.676,131.285,479.64,127.231,475.266,126.603z M210.112,410.059h64v16h-64V410.059z M210.112,442.059h64v8 c0,8.837-7.163,16-16,16h-32c-8.837,0-16-7.163-16-16V442.059z M146.424,304.099c4.368,3.572,8.932,6.898,13.672,9.96 c7.559,4.777,13.249,12.004,16.12,20.472l-17.16,17.128l-16.616-11.456c-7.276-5.014-17.239-3.18-22.254,4.096 c-1.202,1.745-2.046,3.711-2.482,5.784l-4.192,19.976H94.496l-4.192-19.944c-1.82-8.647-10.305-14.182-18.952-12.362 c-2.073,0.436-4.039,1.28-5.784,2.482l-16.624,11.424l-14.576-14.544l11.448-16.608c5.019-7.273,3.191-17.237-4.082-22.256 c-1.746-1.205-3.714-2.051-5.79-2.488L16,291.563v-19.008l19.944-4.2c8.644-1.833,14.166-10.326,12.333-18.971 c-0.435-2.051-1.268-3.996-2.453-5.725l-11.456-16.656l14.576-14.544l16.632,11.456c7.279,5.009,17.242,3.169,22.251-4.11 c1.2-1.743,2.042-3.707,2.477-5.778l1.4-6.656c1.282,9.218,3.405,18.298,6.344,27.128c-26.323,3.138-45.118,27.022-41.98,53.345 c3.138,26.323,27.022,45.118,53.345,41.98C125.259,327.934,139.13,318.293,146.424,304.099z M134,292.827 c-5.974,16.605-24.277,25.223-40.882,19.25c-16.605-5.974-25.223-24.277-19.25-40.882c4.57-12.703,16.631-21.164,30.131-21.136 c0.104,0,0.2,0,0.304,0C111.66,265.922,121.707,280.391,134,292.827z M460.512,172.971l-23.2-3.312 c-13.122-1.874-25.278,7.245-27.152,20.366c-0.9,6.301,0.74,12.702,4.56,17.794l14.056,18.744l-25.6,19.2l-14.064-18.736 c-7.952-10.605-22.995-12.756-33.599-4.804c-5.092,3.818-8.459,9.503-9.361,15.804l-3.24,23.232l-31.672-4.528l3.312-23.2 c1.879-13.121-7.235-25.281-20.356-27.159c-6.305-0.903-12.709,0.737-17.804,4.559l-18.744,14.056l-19.2-25.6l18.736-14.064 c10.605-7.952,12.756-22.995,4.804-33.599c-3.818-5.092-9.503-8.459-15.804-9.361l-23.2-3.312l4.528-31.672l23.2,3.312 c13.121,1.879,25.281-7.235,27.159-20.356c0.903-6.305-0.737-12.709-4.559-17.804l-14.104-18.76l25.6-19.2l14.064,18.744 c7.952,10.605,22.995,12.756,33.599,4.804c5.092-3.818,8.459-9.503,9.361-15.804l3.312-23.2l31.672,4.52l-3.312,23.2 c-1.874,13.122,7.244,25.278,20.366,27.152c6.301,0.9,12.702-0.74,17.794-4.56l18.744-14.056l19.2,25.6l-18.744,14.064 c-10.605,7.952-12.756,22.995-4.804,33.599c3.818,5.092,9.503,8.459,15.804,9.361l23.2,3.312L460.512,172.971z"/><path d="M344 76.171c-35.346 0-64 28.654-64 64 0 35.346 28.654 64 64 64 35.346 0 64-28.654 64-64C407.96 104.841 379.33 76.21 344 76.171zM344 188.171c-26.51 0-48-21.49-48-48s21.49-48 48-48c26.51 0 48 21.49 48 48C391.969 166.668 370.497 188.14 344 188.171zM234.112 354.059H250.112V378.059H234.112zM207.12 275.491c-49.385-19.292-73.78-74.966-54.487-124.351 7.476-19.136 20.893-35.369 38.279-46.313l-8.552-13.536c-52.336 32.971-68.035 102.126-35.064 154.462 12.769 20.269 31.701 35.91 54.016 44.626 19.752 7.568 32.795 26.528 32.8 47.68h16C250.137 310.307 233.035 285.418 207.12 275.491zM394.112 298.059H450.112V314.059H394.112z"/><path transform="rotate(-50.201 410.102 366.054)" d="M402.113 334.822H418.113V397.302H402.113z"/><path d="M346.112 362.059H362.112V418.059H346.112z"/><path transform="rotate(-14.035 42.118 138.071)" d="M9.128 130.058H75.096V146.04999999999998H9.128z"/><path transform="rotate(-54.463 54.109 70.067)" d="M46.111 35.657H62.102999999999994V104.473H46.111z"/><path transform="rotate(-14.342 105.918 34.049)" d="M97.938 1.024H113.938V67.08H97.938z"/></symbol><symbol id="thumb-up" viewBox="0 0 511.981 511.981"><g><g><path d="m495.502 236.263c0-13.943-5.405-26.767-15.219-36.109-9.477-9.021-22.134-13.988-35.641-13.988l-162.409.005c-16.464-17.908-21.958-44.092-13.27-65.004 13.031-31.362 12.298-56.688-2.45-84.684-11.503-21.836-40.53-39.068-60.886-36.162-12.265 1.752-20.815 10.203-23.461 23.186-.871 4.273-1.131 9.309-1.434 15.14-.838 16.181-1.987 38.342-16.159 65.492-8.273 15.85-11.13 32.729-13.651 47.623-4.637 27.396-7.396 43.662-34.698 46.645v-2.718c0-5.523-4.477-10-10-10h-79.745c-5.523 0-10 4.477-10 10v294.035c0 5.523 4.477 10 10 10h79.747c5.523 0 10-4.477 10-10v-2.805c18.363 1.452 36.906 6.572 56.363 11.959 23.27 6.443 47.331 13.105 71.701 13.105h112.143c30.679 0 55.501-16.171 66.4-43.259 6.207-15.427 6.479-31.339 1.319-43.197 7.605-5.464 13.936-13.05 18.544-22.471 8.322-17.01 9.151-36.271 2.793-51.103 10.897-8.542 17.625-20.821 20.692-32.648 3.592-13.852 2.572-27.342-2.22-37.645 18.45-7.413 31.541-25.096 31.541-45.397zm-50.079 29.099-50 1.087c-5.521.12-9.9 4.693-9.78 10.215.12 5.521 4.698 9.88 10.215 9.78l46.76-1.017c5.417 4.956 7.292 16.949 4.204 28.856-1.755 6.769-9.489 28.854-35.313 28.854-5.523 0-10 4.477-10 10s4.477 10 10 10c5.839 0 11.188-.757 16.062-2.124 3.48 9.364 2.561 22.216-2.839 33.252-2.771 5.665-8.338 14.068-18.253 18.42-.29.106-.577.227-.857.362-3.794 1.536-8.202 2.481-13.301 2.481-5.523 0-10 4.477-10 10s4.477 10 10 10c4.732 0 9.298-.551 13.651-1.624 2.543 6.26 2.738 16.342-1.692 27.353-3.717 9.238-15.819 30.724-47.845 30.724h-112.145c-21.652 0-43.37-6.014-66.363-12.38-20.081-5.56-40.752-11.273-61.701-12.737v-79.162c0-5.523-4.477-10-10-10s-10 4.477-10 10v92.021h-59.747v-274.035h59.747v92.014c0 5.523 4.477 10 10 10s10-4.477 10-10v-79.225c44.37-4.023 49.689-35.446 54.417-63.377 2.385-14.089 4.851-28.657 11.661-41.706 16.189-31.015 17.521-56.709 18.402-73.712.261-5.03.486-9.374 1.058-12.182 1.244-6.104 4.107-7.01 6.692-7.379 11.005-1.571 32.208 10.207 40.363 25.685 11.989 22.757 12.459 41.735 1.675 67.688-9.547 22.979-6.491 50.531 6.882 72.679h-12.329c-5.522 0-10 4.478-10 10s4.478 10 10 10l199.595-.006c8.349 0 16.109 3.009 21.85 8.474 5.81 5.53 9.009 13.209 9.009 21.623.001 15.684-13.492 28.737-30.078 29.098z"/><path d="m106.226 332.702c-5.523 0-10 4.48-10 10.003s4.477 10 10 10 10-4.477 10-10v-.007c0-5.523-4.477-9.996-10-9.996z"/></g></g></symbol><symbol id="user" viewBox="0 0 482.9 482.9"><path d="M239.7,260.2c0.5,0,1,0,1.6,0c0.2,0,0.4,0,0.6,0c0.3,0,0.7,0,1,0c29.3-0.5,53-10.8,70.5-30.5 c38.5-43.4,32.1-117.8,31.4-124.9c-2.5-53.3-27.7-78.8-48.5-90.7C280.8,5.2,262.7,0.4,242.5,0h-0.7c-0.1,0-0.3,0-0.4,0h-0.6 c-11.1,0-32.9,1.8-53.8,13.7c-21,11.9-46.6,37.4-49.1,91.1c-0.7,7.1-7.1,81.5,31.4,124.9C186.7,249.4,210.4,259.7,239.7,260.2z M164.6,107.3c0-0.3,0.1-0.6,0.1-0.8c3.3-71.7,54.2-79.4,76-79.4h0.4c0.2,0,0.5,0,0.8,0c27,0.6,72.9,11.6,76,79.4 c0,0.3,0,0.6,0.1,0.8c0.1,0.7,7.1,68.7-24.7,104.5c-12.6,14.2-29.4,21.2-51.5,21.4c-0.2,0-0.3,0-0.5,0l0,0c-0.2,0-0.3,0-0.5,0 c-22-0.2-38.9-7.2-51.4-21.4C157.7,176.2,164.5,107.9,164.6,107.3z"/><path d="M446.8,383.6c0-0.1,0-0.2,0-0.3c0-0.8-0.1-1.6-0.1-2.5c-0.6-19.8-1.9-66.1-45.3-80.9c-0.3-0.1-0.7-0.2-1-0.3 c-45.1-11.5-82.6-37.5-83-37.8c-6.1-4.3-14.5-2.8-18.8,3.3c-4.3,6.1-2.8,14.5,3.3,18.8c1.7,1.2,41.5,28.9,91.3,41.7 c23.3,8.3,25.9,33.2,26.6,56c0,0.9,0,1.7,0.1,2.5c0.1,9-0.5,22.9-2.1,30.9c-16.2,9.2-79.7,41-176.3,41 c-96.2,0-160.1-31.9-176.4-41.1c-1.6-8-2.3-21.9-2.1-30.9c0-0.8,0.1-1.6,0.1-2.5c0.7-22.8,3.3-47.7,26.6-56 c49.8-12.8,89.6-40.6,91.3-41.7c6.1-4.3,7.6-12.7,3.3-18.8c-4.3-6.1-12.7-7.6-18.8-3.3c-0.4,0.3-37.7,26.3-83,37.8 c-0.4,0.1-0.7,0.2-1,0.3c-43.4,14.9-44.7,61.2-45.3,80.9c0,0.9,0,1.7-0.1,2.5c0,0.1,0,0.2,0,0.3c-0.1,5.2-0.2,31.9,5.1,45.3 c1,2.6,2.8,4.8,5.2,6.3c3,2,74.9,47.8,195.2,47.8s192.2-45.9,195.2-47.8c2.3-1.5,4.2-3.7,5.2-6.3 C447,415.5,446.9,388.8,446.8,383.6z"/></symbol><symbol id="youtube" viewBox="0 0 576 512"><path d="M549.655 124.083c-6.281-23.65-24.787-42.276-48.284-48.597C458.781 64 288 64 288 64S117.22 64 74.629 75.486c-23.497 6.322-42.003 24.947-48.284 48.597-11.412 42.867-11.412 132.305-11.412 132.305s0 89.438 11.412 132.305c6.281 23.65 24.787 41.5 48.284 47.821C117.22 448 288 448 288 448s170.78 0 213.371-11.486c23.497-6.321 42.003-24.171 48.284-47.821 11.412-42.867 11.412-132.305 11.412-132.305s0-89.438-11.412-132.305zm-317.51 213.508V175.185l142.739 81.205-142.739 81.201z"/></symbol><symbol id="zoom" viewBox="0 0 512 512">
  <g>
    <g>
      <path d="m289.8,200.2h-49.3v-49.3c0-11.3-9.1-20.4-20.4-20.4-11.3,0-20.4,9.1-20.4,20.4v49.3h-49.3c-11.3,0-20.4,9.1-20.4,20.4 0,11.3 9.1,20.4 20.4,20.4h49.3v49.3c0,11.3 9.1,20.4 20.4,20.4 11.3,0 20.4-9.1 20.4-20.4v-49.3h49.3c11.3,0 20.4-9.1 20.4-20.4 0-11.3-9.2-20.4-20.4-20.4z"/>
      <path d="m220.2,388.7c-92.9,0-168.2-75.2-168.2-168.1s75.3-168.1 168.2-168.1 168.1,75.3 168.1,168.1-75.3,168.1-168.1,168.1zm274.8,78l-113.3-113.3c29.7-36.1 47.6-82.4 47.6-132.8 0-115.5-93.6-209.2-209.2-209.2s-209.1,93.7-209.1,209.2 93.6,209.2 209.2,209.2c50.4,0 96.6-17.8 132.7-47.5l113.3,113.3c5.2,5.3 21.1,7.9 28.9,0 7.9-8 7.9-20.9-0.1-28.9z"/>
    </g>
  </g>
</symbol></svg>